<?xml version="1.0" standalone="no"?>
<!DOCTYPE svg PUBLIC "-//W3C//DTD SVG 20010904//EN"
 "http://www.w3.org/TR/2001/REC-SVG-20010904/DTD/svg10.dtd">
<svg version="1.0" xmlns="http://www.w3.org/2000/svg"
 width="1168.000000pt" height="623.000000pt" viewBox="0 0 1168.000000 623.000000"
 preserveAspectRatio="xMidYMid meet">

<g transform="translate(0.000000,623.000000) scale(0.100000,-0.100000)"
fill="#000000" stroke="none">
<path d="M4380 6223 c1 -4 7 -19 14 -33 12 -20 21 -24 49 -22 31 3 38 -1 61
-35 l26 -38 -156 -3 c-154 -2 -155 -3 -152 -25 2 -16 11 -23 31 -25 34 -4 34
-31 0 -47 -17 -9 -19 -15 -11 -30 23 -43 63 -76 100 -81 28 -5 38 -11 38 -25
0 -17 34 -49 52 -49 5 0 8 52 8 115 l0 115 40 0 40 0 0 -103 c0 -101 1 -104
25 -115 14 -7 28 -12 30 -12 3 0 5 52 5 115 l0 115 45 0 c41 0 45 -2 45 -25 0
-18 -5 -25 -20 -25 -30 0 -27 -54 5 -85 53 -53 89 -20 83 76 -3 59 -3 59 25
59 l27 0 0 -99 c0 -94 1 -99 25 -115 13 -9 27 -16 30 -16 3 0 5 52 5 115 0
108 1 115 20 115 15 0 20 7 20 25 l0 25 -169 0 -168 0 -41 59 c-28 39 -51 61
-69 65 -16 4 -36 9 -45 12 -10 3 -18 2 -18 -3z m-2 -225 c-3 -35 -8 -45 -35
-61 -44 -25 -62 -12 -27 19 21 20 25 31 20 55 -5 26 -3 29 20 29 23 0 25 -3
22 -42z"/>
<path d="M5652 6218 c-19 -19 -14 -73 9 -102 l20 -26 -250 0 -251 0 0 -25 c0
-24 3 -25 60 -25 57 0 60 -1 60 -25 0 -25 -1 -25 -24 -9 -22 13 -29 14 -53 2
-58 -27 -27 -110 47 -124 20 -5 30 -12 30 -25 0 -15 44 -49 65 -49 3 0 5 24 5
54 0 45 4 58 22 70 31 22 40 10 23 -31 -20 -47 -20 -46 15 -66 27 -17 31 -17
36 -2 9 23 -2 83 -22 112 -9 14 -29 30 -45 36 -20 8 -29 18 -29 34 0 22 3 23
85 23 l85 0 0 -40 c0 -33 -3 -40 -20 -40 -28 0 -26 -32 6 -69 33 -40 74 -43
74 -6 0 20 5 25 25 25 22 0 25 -4 25 -35 0 -28 5 -37 30 -50 l30 -16 0 116 0
115 55 0 c58 0 74 -12 61 -47 -5 -12 -9 -14 -18 -5 -20 20 -38 14 -38 -12 0
-24 104 -176 121 -176 15 0 11 10 -20 49 -29 36 -29 38 -10 49 10 7 19 19 19
27 0 14 3 14 30 0 23 -12 30 -22 30 -44 0 -16 3 -36 6 -44 3 -10 -3 -18 -17
-22 l-23 -8 27 -23 c27 -23 29 -23 53 -8 27 18 38 15 29 -9 -9 -23 -61 -40
-101 -34 -20 3 -51 18 -69 32 -46 34 -55 32 -19 -6 40 -42 95 -69 142 -69 79
0 111 64 58 119 -25 26 -26 33 -26 128 0 98 1 102 23 105 14 2 23 11 25 26 l3
22 -176 0 -175 0 -12 26 c-17 36 0 60 41 56 38 -3 40 10 5 37 -30 23 -64 27
-82 9z m-2 -218 c0 -36 -2 -40 -25 -40 -22 0 -25 4 -25 40 0 36 3 40 25 40 23
0 25 -4 25 -40z m288 8 c-2 -28 -7 -33 -28 -33 -19 0 -25 6 -31 33 -6 31 -6
32 28 32 33 0 34 -2 31 -32z m-638 -47 c0 -12 -40 -41 -57 -41 -21 0 -15 26
10 38 28 14 47 15 47 3z"/>
<path d="M6401 6204 c16 -15 38 -26 53 -26 18 0 35 -12 56 -38 40 -51 38 -58
-9 -21 -47 37 -81 51 -129 51 l-36 0 29 -30 c31 -33 45 -36 73 -19 15 9 25 8
47 -7 l29 -19 -172 -3 -172 -2 0 -25 c0 -24 2 -25 65 -25 63 0 65 -1 65 -25 0
-29 0 -29 -35 -11 -49 25 -94 -7 -81 -58 7 -30 59 -66 94 -66 16 0 22 -6 22
-23 0 -20 32 -47 55 -47 3 0 5 24 5 54 0 45 4 58 22 70 31 22 39 11 22 -36
-15 -44 -15 -44 29 -69 23 -13 32 9 24 57 -8 49 -33 84 -68 97 -20 8 -29 18
-29 34 0 22 4 23 75 23 l75 0 0 -100 0 -99 30 -16 c16 -8 31 -15 35 -15 3 0 5
52 5 115 l0 115 51 0 c36 0 49 -4 47 -12 -3 -7 -14 -14 -26 -16 -27 -4 -28
-14 -3 -36 15 -14 23 -15 45 -5 36 17 51 1 30 -29 -13 -19 -22 -22 -46 -17
-56 13 -59 -37 -4 -60 20 -9 34 -24 41 -46 7 -19 20 -36 29 -37 16 -3 16 -1
-2 33 l-18 37 28 28 c33 34 35 58 8 93 -11 14 -20 35 -20 46 0 17 6 21 35 21
l35 0 0 -100 0 -99 30 -16 c16 -8 31 -15 35 -15 3 0 5 52 5 115 l0 115 125 0
c105 0 125 -2 125 -15 0 -9 -11 -20 -24 -25 -13 -5 -27 -13 -30 -18 -3 -6 -20
-3 -41 8 -39 20 -66 17 -90 -10 -26 -29 -11 -70 45 -125 53 -52 79 -56 37 -5
-39 46 -44 70 -17 92 31 25 43 23 36 -9 -13 -51 42 -60 67 -10 l16 32 0 -57
c1 -53 3 -59 31 -73 16 -8 31 -15 35 -15 3 0 5 52 5 115 l0 115 45 0 45 0 0
-40 c0 -33 -3 -40 -20 -40 -30 0 -25 -41 8 -73 37 -35 72 -36 72 -2 0 20 5 25
25 25 22 0 25 -4 25 -35 0 -28 5 -37 30 -50 l30 -16 0 116 c0 108 1 115 20
115 15 0 20 7 20 25 l0 25 -467 1 -468 0 -50 67 c-48 63 -53 67 -95 70 l-45 3
26 -27z m999 -204 c0 -36 -2 -40 -25 -40 -22 0 -25 4 -25 40 0 36 3 40 25 40
23 0 25 -4 25 -40z m-1100 -39 c0 -12 -46 -41 -65 -41 -23 0 -18 25 8 38 27
13 57 15 57 3z"/>
<path d="M4950 6015 l-24 -26 25 -25 25 -25 24 26 24 26 -25 25 -25 25 -24
-26z"/>
<path d="M4950 5885 l-24 -26 25 -25 25 -25 24 26 24 26 -25 25 -25 25 -24
-26z"/>
<path d="M7397 5801 l-29 -6 22 -28 c16 -20 26 -25 33 -18 18 18 32 13 85 -29
27 -22 53 -40 56 -40 17 0 0 20 -51 60 -83 65 -85 67 -116 61z"/>
<path d="M2314 5625 c-183 -47 -279 -100 -387 -214 -66 -70 -109 -146 -121
-213 -4 -20 -16 -58 -27 -84 -17 -38 -20 -58 -14 -108 3 -34 6 -84 5 -112 0
-37 5 -57 20 -76 17 -22 18 -30 9 -58 -14 -38 -6 -96 16 -120 9 -10 19 -38 21
-61 3 -24 10 -51 15 -61 10 -19 59 -48 83 -48 9 0 12 -7 9 -20 -11 -40 8 -110
44 -162 26 -39 30 -47 12 -31 -13 12 -51 34 -84 49 -194 89 -517 -48 -595
-253 -28 -72 -36 -188 -21 -279 7 -38 30 -122 52 -186 l39 -118 -21 -62 c-17
-50 -20 -80 -17 -143 5 -90 26 -141 80 -192 35 -33 110 -72 141 -73 13 0 17
-5 13 -17 -3 -10 -10 -54 -16 -98 -7 -44 -20 -116 -31 -160 -37 -157 -21 -317
44 -427 55 -95 174 -178 306 -214 34 -10 60 -21 59 -25 -2 -3 -57 -58 -123
-120 -66 -62 -122 -117 -123 -122 -2 -4 29 -96 69 -204 58 -158 70 -199 60
-212 -57 -78 -72 -136 -52 -202 15 -48 65 -107 98 -115 18 -5 21 -10 14 -17
-16 -16 -479 -15 -616 1 -252 30 -566 100 -803 179 -74 24 -136 43 -138 40 -6
-6 117 -217 166 -282 58 -78 188 -213 267 -277 35 -28 63 -55 63 -58 0 -10
-170 -74 -273 -104 -123 -36 -256 -56 -410 -63 -76 -3 -134 -10 -130 -14 16
-16 199 -91 312 -128 735 -244 1548 -280 2171 -95 180 53 431 154 555 223 l50
28 181 -68 c1347 -505 2980 -583 4459 -213 236 59 538 152 751 232 l81 30 34
-21 c64 -39 294 -139 424 -183 230 -79 462 -130 704 -154 153 -15 519 -12 689
5 390 41 857 154 1137 277 50 22 94 43 98 47 4 4 -54 11 -130 14 -147 7 -317
33 -429 68 -102 31 -254 91 -254 99 0 4 17 20 38 36 71 54 205 189 270 273 62
79 196 300 188 309 -2 2 -67 -17 -143 -41 -257 -84 -503 -140 -758 -173 -211
-27 -735 -22 -735 7 0 5 22 9 48 9 165 0 243 193 130 317 l-21 22 76 203 75
203 -130 124 -130 125 63 18 c98 27 169 67 235 130 129 124 171 301 119 508
-14 55 -45 237 -45 264 0 8 18 18 43 24 159 40 236 231 167 414 l-17 46 45
134 c41 120 46 145 50 249 5 131 -7 187 -61 273 -104 165 -408 262 -569 181
-18 -10 -49 -29 -68 -43 l-35 -26 33 40 c37 46 52 90 52 151 0 38 3 42 29 48
40 9 71 45 77 91 3 21 15 56 26 78 17 31 19 49 15 95 -5 43 -2 63 9 80 9 13
15 38 13 64 -1 23 4 67 10 97 12 50 11 61 -8 115 -12 33 -28 83 -35 110 -36
145 -170 288 -339 365 -89 40 -257 80 -338 80 -76 0 -109 -10 -150 -44 -17
-15 -48 -27 -79 -31 -42 -6 -55 -13 -76 -41 -29 -38 -48 -44 -212 -76 -131
-25 -130 -24 -113 -138 22 -141 54 -162 189 -130 109 26 163 26 187 0 10 -11
16 -23 13 -25 -3 -3 -93 -7 -199 -8 -184 -2 -196 -1 -236 20 -24 13 -43 19
-43 14 0 -23 54 -71 85 -77 19 -3 118 -1 221 5 103 6 189 9 192 7 10 -10 -27
-53 -56 -65 -25 -11 -51 -10 -142 3 -61 9 -115 14 -120 11 -15 -9 -12 -72 4
-104 20 -37 54 -59 117 -72 l52 -11 -70 -28 c-39 -15 -86 -38 -104 -51 -41
-29 -200 -187 -215 -214 -9 -16 -21 -2 -93 114 l-82 133 21 42 c40 83 17 188
-51 237 -37 26 -114 36 -158 21 -21 -8 -33 -8 -37 0 -11 18 -88 48 -124 48
-46 0 -111 -31 -138 -65 l-22 -27 -2 275 -3 276 -95 -65 c-199 -136 -438 -235
-649 -270 -125 -20 -383 -15 -501 11 -189 41 -418 135 -599 244 -46 28 -88 51
-94 51 -5 0 -47 -23 -93 -51 -175 -105 -397 -195 -584 -235 -121 -26 -439 -27
-560 -1 -199 43 -412 134 -597 256 l-93 61 0 -271 0 -271 -39 35 c-63 57 -147
62 -221 13 -25 -16 -41 -21 -51 -15 -22 14 -107 11 -137 -5 -92 -48 -125 -149
-81 -245 11 -25 17 -51 14 -59 -5 -14 -144 -241 -153 -252 -3 -3 -7 2 -10 10
-3 8 -53 63 -112 121 -97 96 -115 109 -190 140 l-83 34 34 9 c91 23 133 58
145 122 12 62 -4 68 -133 49 -98 -14 -115 -15 -146 -2 -30 13 -57 50 -45 63 3
2 91 -1 196 -7 106 -6 204 -8 218 -5 31 8 74 49 74 70 0 13 -7 11 -36 -6 -45
-26 -141 -33 -324 -21 l-125 8 23 23 c28 28 78 29 187 3 92 -22 128 -19 154
15 22 28 45 141 39 194 -3 34 -4 35 -68 48 -187 37 -230 51 -260 86 -24 26
-42 36 -89 45 -32 6 -65 19 -72 27 -42 51 -165 58 -315 19z m226 -40 c10 -12
9 -15 -8 -15 -11 0 -46 -14 -78 -31 -48 -25 -62 -28 -82 -20 -12 6 -46 11 -73
11 -45 0 -55 -4 -85 -34 -29 -29 -34 -41 -34 -81 0 -41 5 -52 38 -85 22 -23
55 -43 80 -49 53 -15 55 -37 6 -71 -45 -30 -96 -96 -130 -168 -30 -63 -27
-105 10 -149 14 -17 26 -48 30 -79 10 -66 38 -112 81 -130 23 -9 40 -26 49
-48 16 -38 47 -63 86 -68 21 -2 27 3 37 34 7 20 17 91 22 156 12 129 17 152
35 152 27 0 466 -138 490 -153 57 -38 14 -58 -99 -46 -94 9 -150 11 -143 4 3
-3 66 -16 141 -29 75 -13 157 -34 182 -46 68 -33 126 -130 78 -130 -16 0 -280
49 -353 65 -68 14 70 -38 170 -65 133 -36 190 -66 225 -118 27 -40 34 -92 11
-92 -7 0 -33 11 -57 25 -24 13 -100 40 -167 59 -68 19 -149 47 -180 61 -47 21
-53 22 -39 7 25 -27 100 -66 204 -106 124 -47 171 -72 204 -109 40 -43 38 -73
-3 -82 -44 -10 -82 -30 -148 -78 -30 -23 -71 -47 -91 -53 -83 -29 -156 30
-233 187 -25 52 -46 86 -46 76 0 -10 18 -73 40 -141 47 -143 51 -199 18 -220
-32 -19 -82 -29 -117 -21 -27 6 -28 8 -20 43 15 64 10 123 -21 247 l-30 120 7
-110 c4 -60 7 -145 8 -187 0 -67 -3 -79 -24 -102 -24 -26 -83 -37 -95 -17 -3
4 0 33 6 62 8 41 8 90 -2 202 -7 81 -15 145 -19 142 -3 -4 -9 -82 -12 -173 -3
-94 -11 -176 -17 -188 -16 -31 -65 -49 -91 -34 -25 13 -25 17 -5 87 13 45 15
80 9 180 -4 68 -8 123 -10 121 -2 -2 -11 -66 -20 -143 -21 -170 -34 -208 -83
-231 -25 -12 -40 -14 -51 -6 -18 11 -18 12 9 112 19 72 41 353 26 339 -3 -3
-15 -68 -27 -145 -21 -143 -49 -226 -92 -272 -29 -31 -94 -68 -135 -77 -57
-12 -50 17 21 87 88 87 115 147 133 302 7 66 18 154 24 194 17 123 13 117 -34
-50 -10 -36 -22 -58 -31 -58 -54 0 -48 175 11 375 5 15 3 17 -6 8 -7 -6 -29
-53 -50 -105 -39 -97 -61 -118 -87 -82 -26 35 -15 86 45 206 60 123 52 128
-26 18 -25 -36 -47 -67 -49 -69 -2 -3 -11 2 -19 11 -15 15 -15 20 -1 61 13 39
32 70 117 191 8 11 -13 -3 -46 -31 -66 -56 -94 -66 -94 -33 0 37 42 104 109
174 l66 69 -45 -28 c-25 -15 -62 -43 -83 -62 -40 -36 -57 -36 -57 -1 0 42 42
109 103 164 47 42 54 52 30 40 -34 -17 -73 -21 -73 -8 0 4 10 23 21 42 84 139
229 237 432 290 90 24 190 26 207 5z m6840 -5 c117 -28 251 -95 326 -164 69
-62 129 -148 120 -171 -5 -14 -11 -13 -45 5 -22 11 -43 20 -46 20 -3 0 21 -26
55 -57 34 -31 70 -73 81 -94 18 -37 26 -99 12 -99 -4 0 -28 18 -54 40 -26 22
-64 49 -85 62 -33 19 -29 14 28 -45 92 -92 141 -197 92 -197 -7 0 -45 28 -85
63 l-73 62 53 -65 c86 -108 134 -224 95 -237 -6 -2 -41 37 -78 87 -37 49 -69
90 -71 90 -2 0 20 -46 50 -103 70 -136 82 -175 64 -213 -10 -20 -22 -29 -38
-29 -19 0 -27 10 -45 60 -21 58 -84 181 -71 140 50 -159 63 -320 31 -370 -16
-25 -20 -26 -30 -13 -6 9 -22 59 -35 112 -13 54 -25 95 -27 93 -2 -2 3 -53 11
-113 9 -60 20 -152 25 -204 13 -125 47 -195 138 -284 54 -54 64 -69 52 -76
-32 -21 -109 10 -166 67 -49 48 -70 101 -89 214 -27 165 -37 220 -41 216 -2
-1 1 -73 5 -158 7 -113 15 -171 31 -218 19 -56 19 -66 7 -79 -13 -13 -20 -12
-54 4 -57 28 -59 34 -95 299 l-12 90 -7 -120 c-4 -67 -3 -140 2 -165 23 -108
23 -117 1 -124 -10 -4 -31 -2 -45 3 -47 18 -55 44 -62 211 -3 85 -9 164 -13
175 -12 39 -31 -256 -21 -324 6 -39 6 -68 1 -73 -18 -18 -74 -4 -95 24 -23 31
-26 73 -14 258 l7 115 -25 -90 c-26 -91 -36 -226 -21 -272 6 -19 3 -23 -27
-28 -44 -9 -114 11 -127 35 -17 32 -12 66 30 194 22 67 40 131 40 142 -1 10
-20 -19 -43 -66 -72 -145 -121 -193 -198 -193 -32 0 -56 12 -125 59 -47 33
-107 66 -132 74 -58 19 -63 37 -21 85 37 42 68 59 195 108 111 43 186 80 204
101 10 13 3 12 -36 -4 -26 -12 -98 -35 -159 -51 -60 -17 -137 -44 -169 -60
-33 -16 -65 -29 -73 -29 -36 0 6 98 60 140 32 25 99 50 213 79 85 22 154 47
154 57 0 3 -7 3 -16 0 -35 -13 -347 -67 -360 -62 -22 9 -16 33 18 71 53 62 80
71 333 116 94 17 61 22 -67 11 -109 -10 -152 -3 -142 22 9 24 77 50 302 116
130 39 217 59 222 54 5 -5 16 -74 25 -153 17 -166 29 -196 73 -180 37 14 61
38 77 76 8 19 21 33 30 33 10 0 32 15 50 33 25 25 35 45 40 83 3 27 10 56 16
64 5 8 18 29 29 45 11 17 20 45 20 64 0 52 -65 165 -127 221 -60 53 -66 79
-21 91 113 30 160 139 94 215 -18 22 -34 28 -79 32 -31 2 -69 -1 -84 -7 -24
-9 -36 -7 -87 19 -32 17 -65 30 -72 30 -15 0 -18 12 -7 23 13 14 120 6 203
-13z m-3439 -90 c192 -111 393 -190 589 -232 151 -32 439 -32 587 0 179 39
392 127 546 226 l57 36 0 -1255 c0 -1205 -1 -1257 -19 -1337 -80 -340 -248
-688 -478 -991 -101 -133 -320 -357 -453 -464 -261 -210 -579 -388 -863 -482
l-67 -23 -176 86 c-891 434 -1485 1090 -1648 1818 l-26 115 0 1268 0 1267 33
-22 c58 -39 310 -158 389 -184 177 -58 268 -71 478 -70 218 1 304 14 499 79
111 38 311 130 396 183 28 17 54 32 59 32 5 0 48 -23 97 -50z m-3249 30 c60
-17 60 -78 1 -101 -60 -22 -268 58 -223 86 40 25 158 32 222 15z m6543 -10
c25 -20 18 -30 -40 -55 -121 -54 -189 -54 -213 0 -13 27 0 49 38 65 33 13 196
6 215 -10z m-6743 -77 c133 -50 172 -73 125 -73 -33 0 -35 -13 -5 -34 32 -23
53 -20 80 12 12 15 44 43 70 61 52 37 85 41 154 19 35 -12 39 -17 37 -43 -4
-51 -33 -65 -134 -65 -53 0 -103 -6 -122 -14 -41 -17 -81 -64 -97 -112 -16
-47 -7 -134 16 -174 16 -27 17 -32 3 -45 -13 -14 -20 -14 -60 0 -131 45 -194
181 -140 301 l19 41 -57 0 c-70 0 -115 22 -130 63 -19 57 22 110 86 110 17 0
87 -21 155 -47z m6952 21 c67 -67 4 -147 -116 -147 -55 0 -56 -1 -43 -21 25
-38 35 -106 23 -159 -17 -80 -104 -160 -184 -169 -24 -2 -30 1 -32 20 -2 13 2
30 9 38 7 8 14 47 16 87 4 61 1 79 -19 117 -34 67 -86 90 -203 90 -108 0 -135
13 -135 65 0 36 -2 35 99 59 35 7 82 -18 141 -75 28 -27 55 -49 60 -49 26 0
60 22 60 38 0 15 -6 18 -27 14 -56 -9 -7 18 118 67 147 58 194 63 233 25z
m-6394 -69 c15 -18 10 -45 -12 -59 -33 -20 -69 20 -54 60 7 18 50 18 66 -1z
m5678 -19 c6 -46 -51 -66 -67 -23 -13 33 5 59 37 55 21 -2 28 -9 30 -32z
m-5783 -89 c59 -9 80 -16 80 -27 0 -22 -47 -24 -147 -5 -99 20 -146 15 -175
-18 -48 -52 -56 -110 -23 -164 26 -43 79 -57 193 -50 88 5 109 -2 87 -28 -22
-27 -113 -39 -189 -26 -102 18 -151 74 -151 172 0 134 101 179 325 146z m6074
-11 c46 -25 71 -71 71 -134 0 -61 -21 -114 -57 -141 -13 -11 -55 -25 -94 -32
-59 -10 -80 -10 -128 2 -45 11 -56 18 -56 34 0 19 6 20 85 17 152 -7 210 26
210 117 0 64 -28 107 -80 122 -34 10 -57 9 -139 -6 -94 -17 -151 -15 -151 5 0
36 275 49 339 16z m-6682 -195 c-16 -19 -45 -59 -64 -88 -19 -30 -40 -52 -46
-50 -20 7 -13 89 12 141 13 26 42 67 64 90 l40 41 12 -50 c11 -48 10 -51 -18
-84z m7078 88 c50 -56 87 -138 83 -185 -4 -53 -21 -52 -53 2 -15 25 -43 64
-62 84 -32 36 -34 41 -27 89 4 28 10 51 14 51 4 0 24 -19 45 -41z m-5572 -79
c31 -35 37 -93 12 -140 -14 -26 -13 -29 9 -44 13 -8 29 -31 36 -51 22 -66 -36
-141 -118 -152 -38 -5 -42 -9 -65 -62 -43 -95 -66 -158 -143 -382 -77 -228
-112 -319 -164 -434 l-32 -70 -14 55 c-20 77 -74 187 -117 238 -21 24 -37 47
-37 52 0 4 25 14 56 22 66 16 78 35 59 92 -9 26 -10 47 -4 71 12 42 -1 96 -35
146 l-24 35 119 193 c65 106 119 199 119 205 0 7 -9 21 -20 31 -26 24 -43 79
-35 115 9 39 58 80 97 80 18 0 46 -11 66 -27 l35 -26 18 24 c10 13 19 27 19
30 0 4 15 14 33 23 45 23 95 14 130 -24z m4157 25 c15 -8 38 -30 50 -50 l22
-35 34 30 c107 94 218 -49 129 -166 l-26 -34 122 -197 c97 -158 119 -200 110
-213 -39 -55 -52 -94 -51 -153 1 -34 -1 -74 -5 -89 -13 -48 1 -75 41 -83 20
-3 47 -11 61 -16 l24 -9 -40 -47 c-52 -63 -93 -143 -116 -227 l-19 -68 -22 45
c-39 75 -98 230 -183 480 -45 131 -99 277 -119 325 -37 86 -38 87 -79 94 -78
13 -123 61 -123 131 0 25 8 43 30 64 30 29 30 30 15 66 -19 46 -19 70 0 107
28 54 90 73 145 45z m-5621 -168 c-18 -33 -39 -90 -48 -126 -17 -70 -28 -79
-49 -40 -29 53 4 185 64 265 l28 36 19 -37 19 -37 -33 -61z m7001 81 c54 -74
79 -218 46 -264 -20 -26 -30 -12 -46 61 -13 62 -41 127 -68 158 -14 15 -13 20
4 52 10 19 22 35 26 35 4 0 21 -19 38 -42z m-6926 -198 c-21 -165 -27 -193
-42 -198 -7 -2 -19 13 -28 34 -26 61 -15 194 20 263 27 53 28 53 47 35 18 -19
18 -24 3 -134z m6856 101 c31 -62 44 -156 31 -223 -12 -56 -31 -85 -49 -74 -5
3 -15 56 -21 118 -7 62 -17 130 -22 151 -9 32 -7 42 7 58 21 23 29 18 54 -30z
m-1415 -297 c31 -6 35 -11 78 -122 25 -65 79 -216 120 -337 82 -239 127 -351
186 -460 l38 -71 -156 -274 -156 -274 -48 -2 c-95 -6 -150 -64 -150 -157 0
-33 8 -67 21 -94 17 -32 20 -52 15 -90 -15 -134 95 -215 228 -167 36 12 51 13
87 3 100 -28 179 18 209 121 12 42 14 66 6 102 l-10 48 145 162 c79 90 148
165 153 166 17 7 130 -121 200 -227 l70 -103 -40 -34 c-38 -33 -65 -89 -73
-153 -2 -19 -15 -28 -64 -45 -164 -60 -257 -161 -301 -329 -17 -65 -22 -228
-9 -308 l7 -46 -83 -35 -82 -34 -34 23 c-69 46 -151 42 -209 -10 -28 -27 -36
-42 -40 -82 -5 -41 -12 -55 -38 -77 -81 -68 -88 -187 -13 -254 25 -23 79 -44
113 -44 12 0 30 -10 41 -21 10 -12 32 -30 47 -39 l28 -18 -123 -52 c-311 -132
-741 -253 -1113 -315 -403 -67 -670 -88 -1100 -87 -705 0 -1343 95 -1920 286
-192 64 -410 151 -421 167 -3 5 4 9 16 9 28 0 75 25 92 48 7 11 32 22 58 26
90 14 142 71 142 155 0 55 -17 94 -61 135 -19 18 -31 40 -31 55 0 14 -9 45
-19 68 -40 88 -158 108 -250 43 -23 -16 -27 -16 -95 14 -98 43 -94 38 -85 98
40 285 -51 500 -255 599 -44 22 -88 39 -97 39 -13 0 -20 14 -28 51 -17 76 -40
119 -77 141 l-33 20 26 41 c65 104 109 163 170 228 36 38 69 69 73 69 4 0 72
-73 151 -162 l144 -162 -3 -76 c-3 -63 1 -82 20 -120 40 -77 117 -109 194 -80
21 8 44 7 93 -6 144 -37 227 26 220 168 -2 37 3 64 16 88 27 51 27 149 -1 187
-30 41 -80 66 -130 67 l-44 1 -156 273 -156 273 60 122 c60 121 78 168 212
554 84 239 115 313 133 313 8 0 36 11 63 25 27 14 50 25 51 25 1 0 4 -390 5
-867 l3 -868 37 -136 c112 -412 326 -770 662 -1104 292 -290 668 -547 1070
-732 113 -52 145 -63 170 -57 67 14 318 119 452 188 271 140 493 303 715 525
237 238 384 442 529 736 94 190 152 346 201 535 l29 115 0 837 0 837 36 -24
c20 -13 51 -27 69 -31z m-6000 -388 c28 -13 65 -39 83 -58 l32 -34 -26 -53
c-15 -29 -48 -76 -75 -104 l-48 -52 -26 32 c-38 48 -92 60 -150 34 -92 -41
-94 -102 -12 -371 l44 -145 37 -3 c20 -2 36 -1 36 2 0 6 59 315 65 343 4 19 8
20 40 12 46 -13 106 4 149 41 18 17 36 30 39 30 2 0 10 -13 17 -30 27 -65 -9
-297 -100 -645 -143 -542 -159 -643 -122 -728 48 -109 179 -126 277 -36 37 35
66 89 234 450 106 226 191 414 189 417 -2 4 -41 63 -87 132 -74 111 -177 299
-195 355 -5 17 2 23 41 37 46 17 48 16 68 -2 26 -24 84 -26 125 -5 23 12 39
13 79 4 71 -15 125 2 177 56 29 30 46 40 55 34 30 -19 73 -7 180 48 l112 58
44 -49 c76 -84 132 -226 133 -334 0 -24 49 -118 182 -352 l181 -319 43 6 c61
8 91 -3 109 -38 20 -37 13 -79 -22 -133 -23 -35 -24 -43 -14 -71 22 -61 13
-99 -30 -120 -37 -20 -54 -19 -120 9 -48 19 -59 21 -74 9 -27 -19 -80 -26
-104 -14 -46 25 -64 117 -37 197 6 18 -23 56 -174 225 -99 112 -185 205 -190
207 -14 5 -166 -145 -224 -222 -69 -92 -163 -256 -228 -398 l-52 -113 -2 -130
c-2 -146 -16 -210 -69 -322 -51 -110 -109 -188 -228 -310 l-110 -112 30 -118
c17 -65 34 -117 39 -116 5 1 22 5 36 8 22 6 33 1 58 -23 43 -43 42 -98 -2
-141 -17 -17 -40 -33 -50 -37 -21 -6 -22 -19 -7 -63 16 -44 2 -56 -90 -74 -84
-17 -93 -16 -111 18 -11 21 -17 23 -64 18 -134 -14 -192 113 -94 207 l38 38
-75 203 -75 204 73 70 c39 39 115 111 168 162 l97 92 -57 6 c-136 14 -257 56
-332 116 -117 93 -167 269 -124 444 11 47 65 361 65 381 0 2 -23 4 -50 4 -91
0 -168 58 -191 143 -15 58 -6 153 21 208 l22 46 -35 89 c-54 138 -71 217 -72
329 0 90 3 106 28 156 33 69 95 128 176 169 76 38 117 48 206 49 54 1 81 -5
120 -23z m8177 3 c126 -42 230 -134 261 -230 35 -109 14 -277 -57 -455 l-35
-86 22 -42 c18 -34 22 -57 22 -136 0 -84 -3 -99 -24 -131 -38 -56 -83 -81
-154 -88 -54 -5 -62 -8 -60 -26 10 -81 45 -296 53 -320 19 -59 28 -176 19
-242 -18 -127 -104 -241 -226 -299 -49 -23 -108 -37 -257 -62 l-38 -7 165
-155 c91 -85 166 -159 166 -165 0 -5 -33 -100 -73 -210 l-74 -200 29 -23 c65
-52 78 -130 30 -184 -27 -31 -34 -33 -96 -33 -61 -1 -68 -3 -90 -30 -16 -20
-27 -26 -32 -19 -5 6 -43 20 -85 29 -70 17 -78 21 -78 42 0 14 4 32 9 42 8 14
1 24 -37 52 -72 53 -81 113 -24 166 25 23 44 25 83 9 13 -6 21 14 45 116 l30
123 -75 70 c-142 134 -249 287 -297 430 -23 67 -28 104 -33 230 l-6 150 -72
148 c-89 183 -152 288 -239 395 -60 75 -174 183 -192 181 -14 -1 -367 -410
-365 -422 1 -7 6 -30 12 -52 13 -53 -1 -114 -34 -142 -32 -28 -59 -29 -105 -4
-34 18 -36 18 -72 0 -20 -10 -54 -21 -77 -25 -36 -6 -43 -3 -71 24 -33 34 -37
63 -15 105 13 26 12 31 -15 74 -39 61 -41 119 -5 153 21 20 31 22 79 17 l55
-5 179 312 178 312 13 88 c6 48 21 111 32 138 23 59 77 143 114 178 l26 24
109 -57 c107 -55 149 -67 179 -48 11 7 26 -2 55 -34 51 -54 105 -71 176 -56
39 8 56 7 84 -4 54 -23 99 -19 126 10 18 19 26 22 37 14 7 -6 29 -17 48 -23
l35 -12 -59 -120 c-33 -66 -97 -176 -143 -244 -45 -69 -86 -130 -90 -136 -4
-5 78 -192 181 -415 159 -341 195 -411 232 -450 111 -114 266 -77 299 72 11
51 10 68 -19 205 -17 82 -60 259 -96 394 -36 135 -77 299 -91 365 -29 141 -43
340 -25 373 l12 22 38 -30 c46 -38 94 -52 147 -44 l40 6 34 -181 34 -181 35 0
36 0 50 167 c60 201 67 284 26 327 -52 55 -132 54 -187 -1 l-34 -33 -39 39
c-43 43 -101 136 -101 162 0 22 63 77 114 100 57 26 168 25 248 -2z m-8290
-325 c9 -20 7 -48 -11 -145 -13 -66 -25 -118 -27 -116 -7 7 -51 162 -59 205
-5 34 -3 47 11 63 26 28 72 25 86 -7z m8232 10 c9 -8 16 -27 16 -42 0 -29 -48
-212 -60 -225 -5 -6 -36 141 -45 220 -7 51 54 83 89 47z m-7802 -86 c25 -73
151 -310 216 -408 68 -101 70 -105 57 -135 -7 -16 -88 -190 -179 -385 -173
-370 -196 -408 -263 -425 -61 -15 -113 37 -113 115 0 56 39 230 115 520 98
370 134 559 135 698 0 59 15 68 32 20z m7323 -55 c4 -49 13 -132 22 -186 14
-96 30 -163 153 -642 73 -284 86 -393 51 -436 -29 -37 -63 -43 -115 -20 -31
13 -51 32 -70 63 -30 52 -356 747 -356 760 0 5 31 57 70 115 70 107 158 271
200 376 13 31 27 57 31 57 4 0 10 -39 14 -87z m-6746 -1037 c15 -16 26 -47 34
-96 l12 -73 60 -16 c234 -65 340 -251 306 -538 -6 -54 -12 -106 -14 -116 -2
-15 24 -29 126 -72 l129 -55 37 31 c53 42 100 48 135 17 29 -24 35 -53 23
-101 -7 -25 -4 -29 27 -42 75 -31 101 -118 51 -165 -21 -19 -35 -23 -80 -22
-30 1 -55 -3 -55 -8 0 -4 -12 -22 -26 -39 -22 -26 -33 -31 -70 -31 -34 0 -51
6 -78 30 -19 17 -37 44 -41 60 -6 29 -13 32 -273 116 -147 47 -268 87 -268 88
-1 0 7 35 18 76 27 103 29 247 4 319 -26 76 -88 135 -163 158 l-58 17 1 120 1
121 48 105 c72 161 72 161 114 116z m6239 -93 l56 -118 2 -127 c2 -114 1 -128
-14 -128 -32 -1 -107 -41 -145 -78 -77 -75 -99 -226 -57 -400 11 -46 20 -85
20 -87 0 -2 -21 -10 -47 -19 -27 -8 -148 -47 -270 -86 -148 -48 -223 -76 -223
-85 0 -57 -66 -108 -132 -103 -37 3 -46 8 -68 41 -20 31 -29 38 -55 37 -60 -4
-76 0 -100 25 -46 46 -19 131 49 156 l36 13 -6 52 c-6 48 -4 55 20 79 23 23
33 26 63 22 20 -4 53 -20 74 -37 l38 -30 128 53 c117 49 128 56 125 78 -12
116 -13 303 -2 350 36 155 143 261 307 303 52 13 58 22 68 108 6 50 37 98 61
98 10 0 37 -45 72 -117z m-6356 -457 c47 -20 96 -72 108 -115 18 -64 12 -192
-14 -292 -13 -52 -26 -100 -27 -108 -3 -11 42 -29 165 -70 l170 -55 -65 -59
c-133 -123 -328 -231 -554 -306 l-120 -40 -5 22 c-4 16 4 31 31 57 73 69 72
169 -1 242 -21 21 -52 41 -69 44 -25 5 -33 13 -40 43 -25 93 -29 82 57 169 44
44 104 111 132 149 55 72 145 246 156 301 7 36 22 40 76 18z m6438 2 c1 -31
73 -184 124 -263 31 -48 100 -132 153 -186 l97 -100 -13 -62 c-7 -34 -13 -62
-14 -62 -1 0 -22 -7 -46 -15 -63 -21 -103 -74 -109 -143 -5 -61 9 -96 57 -141
30 -29 41 -56 22 -56 -29 0 -237 81 -361 141 -139 67 -394 225 -385 239 2 3
81 31 175 61 132 42 170 57 167 69 -37 130 -49 189 -54 260 -6 99 6 156 44
201 41 49 143 89 143 57z m-5860 -699 c28 -9 46 -22 56 -41 l14 -28 -52 31
c-66 39 -100 64 -77 56 10 -3 36 -11 59 -18z m5219 -2 c-31 -22 -59 -35 -59
-27 0 6 10 15 23 20 21 8 45 13 36 7z m161 -254 c0 -5 -11 -71 -24 -148 l-24
-140 34 -82 c19 -45 34 -85 34 -90 0 -4 -18 -16 -41 -25 l-40 -17 -15 35 c-60
144 -54 136 -183 225 -67 46 -121 86 -121 89 0 5 80 40 93 40 4 0 42 -25 82
-55 41 -30 77 -55 79 -55 2 0 6 24 10 53 18 145 15 138 60 158 45 20 56 23 56
12z m-5288 -103 c94 -38 128 -74 128 -131 0 -48 -30 -110 -64 -132 -34 -23
-104 -21 -168 3 -29 11 -56 20 -59 20 -4 0 -19 -34 -34 -75 -15 -41 -29 -75
-31 -75 -9 0 -84 33 -84 36 0 6 149 395 155 405 6 9 43 -3 157 -51z m4916
-122 c-3 -7 -30 -21 -61 -31 l-55 -17 53 -153 c74 -214 70 -196 43 -206 -69
-26 -60 -37 -123 146 -32 93 -60 170 -62 172 -2 3 -27 -3 -57 -12 -70 -22 -73
-22 -81 13 -4 16 -7 32 -8 36 -1 3 72 32 163 64 l165 57 14 -28 c8 -15 11 -33
9 -41z m-4576 -3 l45 -16 7 -92 c15 -228 19 -387 9 -387 -6 0 -26 7 -46 15
-36 15 -47 36 -47 92 0 30 -2 32 -82 59 -70 23 -83 25 -92 12 -54 -72 -49 -69
-100 -52 -32 11 -44 20 -38 29 5 9 294 353 298 355 0 0 21 -7 46 -15z m4245
-258 c34 -106 65 -201 69 -210 6 -17 -3 -23 -63 -41 -20 -6 -25 5 -92 206
l-70 213 32 12 c61 22 58 26 124 -180z m-3746 97 c53 -27 72 -93 45 -158 -18
-42 -51 -66 -93 -66 -38 0 -39 -2 -17 -35 17 -27 67 -186 60 -193 -2 -2 -26 2
-53 10 l-48 13 -31 94 c-32 93 -52 124 -89 135 -18 5 -23 -2 -38 -59 -32 -118
-29 -115 -79 -100 -24 7 -42 17 -42 21 3 17 107 379 115 401 l8 21 117 -34
c65 -20 130 -42 145 -50z m3509 13 c13 -7 35 -28 48 -47 l23 -35 -28 -12 c-42
-18 -66 -16 -87 8 -14 17 -25 20 -58 16 -37 -5 -78 -30 -78 -48 0 -4 7 -15 16
-23 11 -12 36 -16 97 -16 121 0 180 -37 193 -121 14 -87 -63 -157 -183 -167
-78 -6 -122 12 -153 63 -27 44 -26 50 19 64 37 11 41 10 69 -19 36 -36 73 -39
120 -10 24 15 32 27 32 49 0 35 -5 37 -121 46 -102 8 -143 28 -166 82 -28 69
14 140 102 171 42 15 125 14 155 -1z m-3317 -51 c34 -8 34 -11 2 -166 -14 -68
-25 -135 -25 -150 0 -49 71 -90 123 -71 30 12 37 33 73 212 l26 136 40 -7 c21
-4 41 -10 45 -13 9 -10 -47 -288 -67 -334 -28 -64 -69 -86 -152 -79 -77 5
-137 32 -164 73 -25 38 -22 96 11 271 23 120 30 142 44 138 9 -2 28 -7 44 -10z
m2955 -52 c32 -22 52 -67 52 -115 0 -35 -6 -47 -36 -76 l-37 -34 24 -16 c28
-19 138 -135 139 -145 0 -4 -25 -10 -56 -13 l-55 -7 -35 40 c-55 65 -112 105
-146 104 -16 0 -32 -3 -35 -5 -2 -3 3 -44 13 -91 9 -48 15 -88 13 -90 -2 -2
-23 -6 -46 -10 -34 -5 -43 -3 -47 11 -14 48 -79 413 -75 418 3 3 46 14 95 24
113 24 202 26 232 5z m-2513 -44 c3 -5 -6 -86 -20 -181 -14 -95 -24 -174 -22
-175 2 -2 46 -9 99 -15 53 -7 102 -15 108 -19 7 -5 9 -20 5 -44 -6 -27 -11
-35 -24 -32 -9 3 -76 13 -150 22 -86 12 -135 23 -138 31 -4 11 38 347 52 408
4 17 11 20 45 17 22 -2 42 -8 45 -12z m2140 -36 c3 -20 4 -38 1 -41 -2 -2 -55
-11 -116 -18 -62 -8 -114 -16 -115 -17 -1 -2 0 -23 3 -47 l4 -43 47 6 c25 3
76 9 114 13 l67 6 0 -40 0 -40 -72 -7 c-40 -4 -89 -10 -109 -13 l-35 -5 6 -49
c4 -27 9 -52 13 -55 3 -4 56 -1 116 6 60 7 114 9 120 6 6 -4 11 -22 11 -40 l0
-32 -166 -20 c-113 -14 -167 -17 -170 -10 -6 18 -55 428 -51 432 3 3 234 34
313 43 7 0 15 -15 19 -35z m-1639 -22 c9 -5 8 -46 -2 -162 -14 -147 -13 -156
4 -179 35 -48 108 -52 136 -8 9 14 19 73 26 157 16 191 12 181 63 174 23 -4
43 -8 45 -9 2 -2 -4 -76 -12 -166 -17 -181 -31 -220 -87 -251 -46 -26 -163
-20 -214 12 -68 42 -74 75 -53 308 l11 132 36 0 c20 0 41 -4 47 -8z m1289 -14
c-3 -13 -34 -115 -68 -228 l-62 -205 -51 -3 -52 -3 -30 73 c-17 40 -57 137
-90 215 -33 78 -57 145 -54 148 3 3 26 5 51 5 l46 0 59 -150 c33 -83 62 -150
65 -150 4 0 17 39 29 88 13 48 32 117 43 154 19 66 20 67 57 71 20 2 43 4 50
5 8 1 10 -6 7 -20z m-431 -224 c4 -119 5 -219 2 -221 -2 -3 -22 -7 -44 -10
l-40 -5 -6 53 c-3 30 -8 132 -11 227 l-5 172 48 0 49 0 7 -216z m-353 69 l84
-138 3 138 3 137 44 0 45 0 0 -220 0 -220 -49 0 -49 0 -84 137 -83 136 -3
-136 -3 -137 -44 0 -45 0 0 220 0 220 49 0 49 0 83 -137z"/>
<path d="M5755 5320 c-125 -69 -317 -142 -465 -179 -389 -96 -742 -59 -1143
117 -4 2 -6 -517 -5 -1155 l3 -1158 37 -125 c100 -345 275 -638 550 -925 181
-189 425 -383 660 -526 135 -81 353 -195 419 -218 l51 -19 100 39 c713 278
1291 874 1531 1579 14 41 37 119 51 174 l26 98 0 1119 0 1118 -73 -33 c-97
-44 -271 -100 -377 -121 -132 -26 -372 -31 -510 -11 -219 32 -405 93 -625 205
-71 36 -132 67 -135 68 -3 1 -45 -20 -95 -47z m105 -836 c0 -464 2 -844 5
-844 3 0 31 13 63 28 31 16 94 41 139 57 l81 28 5 111 c3 61 5 168 5 239 0
126 0 127 -24 133 -13 4 -28 12 -32 19 -11 19 -94 43 -119 34 -15 -5 -25 -3
-33 7 -7 8 -22 14 -33 14 -11 0 -17 3 -14 6 10 10 125 6 201 -6 64 -10 114 -2
87 14 -6 4 -11 23 -11 41 0 64 86 87 112 31 8 -19 7 -31 -6 -57 -9 -17 -16
-33 -16 -35 0 -1 17 -8 38 -15 20 -6 43 -16 49 -21 19 -15 36 38 28 88 -4 30
-2 44 10 54 8 7 15 18 15 24 0 6 16 45 36 86 19 41 44 110 54 153 21 85 42
127 65 127 20 0 19 17 -2 28 -13 8 -16 23 -15 68 1 31 6 62 12 68 17 17 88 11
111 -10 21 -19 22 -55 4 -111 -5 -17 -3 -23 7 -23 27 0 94 -75 213 -238 46
-62 95 -122 109 -133 15 -11 33 -33 41 -49 9 -18 26 -31 45 -35 25 -5 34 -2
54 22 13 15 20 31 15 34 -6 3 -11 18 -13 32 -1 14 -8 32 -14 40 -7 8 -8 17 -4
21 12 13 73 36 94 36 46 0 122 -129 89 -150 -9 -5 -4 -21 19 -58 l31 -51 -7
-140 -7 -140 54 -72 c32 -44 54 -84 54 -99 0 -18 6 -26 23 -28 l22 -3 0 -393
c0 -387 0 -393 -25 -490 -81 -311 -247 -635 -462 -901 -110 -136 -324 -342
-463 -446 -205 -154 -397 -259 -651 -359 l-50 -20 3 1200 3 1200 -848 0 -847
0 2 803 c2 528 6 801 13 800 6 -2 51 -18 102 -38 201 -77 384 -109 613 -109
231 1 396 30 607 109 93 35 290 130 328 158 11 8 23 13 27 11 5 -3 8 -385 8
-850z m-659 -1112 c63 -68 119 -164 100 -170 -7 -2 -46 -32 -88 -66 -42 -33
-81 -65 -88 -70 -9 -7 -33 9 -79 50 -36 32 -66 64 -66 69 1 32 141 245 161
245 4 0 31 -26 60 -58z m-301 -183 c179 -116 355 -321 400 -466 24 -79 26
-173 4 -237 -18 -52 -95 -143 -150 -177 -32 -19 -46 -21 -125 -17 -175 10
-276 98 -320 278 -18 75 -15 273 5 390 23 133 67 290 80 290 6 0 54 -28 106
-61z m551 -14 c58 -187 87 -476 60 -606 -35 -165 -136 -264 -284 -276 l-62 -5
47 44 c67 62 103 119 123 193 15 55 16 75 7 132 -14 86 -83 226 -153 311 l-51
63 23 26 c54 57 242 187 263 180 5 -2 17 -30 27 -62z m-803 -279 c23 -12 24
-16 26 -162 2 -174 21 -247 83 -328 63 -82 184 -135 312 -137 37 0 42 -2 24
-9 -12 -5 -48 -12 -80 -15 -211 -24 -411 121 -477 345 -20 68 -31 208 -22 282
l7 55 52 -9 c28 -5 62 -15 75 -22z m1061 -101 c1 -115 -19 -211 -64 -301 -82
-168 -260 -269 -440 -249 -89 9 -97 21 -18 28 176 15 278 89 335 243 19 50 23
83 25 213 2 176 -2 167 93 187 52 10 55 10 62 -10 3 -12 6 -61 7 -111z m-569
-645 c0 -83 -1 -90 -20 -90 -19 0 -20 7 -20 90 0 83 1 90 20 90 19 0 20 -7 20
-90z"/>
<path d="M6751 4526 c0 -27 4 -87 9 -135 18 -154 32 -275 34 -311 1 -19 15
-55 31 -80 27 -42 36 -72 36 -113 0 -13 6 -16 25 -11 16 4 24 2 24 -6 0 -9 10
-11 32 -6 21 4 39 1 55 -9 18 -12 28 -13 44 -5 16 9 26 8 44 -4 27 -18 65 -21
65 -6 0 6 7 10 16 10 8 0 13 4 10 8 -3 5 4 39 15 76 22 74 25 143 12 283 -10
108 -18 121 -61 99 -29 -15 -31 -15 -95 32 -36 26 -70 57 -76 70 -13 27 -37
28 -53 2 -7 -11 -21 -20 -31 -20 -11 0 -21 -9 -24 -20 -3 -12 -14 -20 -27 -20
-17 0 -26 13 -46 68 -13 37 -27 85 -31 107 l-6 40 -2 -49z"/>
<path d="M6536 4435 c-3 -9 -6 -28 -6 -41 0 -23 -3 -24 -37 -18 -21 3 -43 13
-50 21 -13 16 -16 6 -28 -105 -3 -30 -11 -62 -18 -73 -12 -20 -42 -26 -51 -10
-4 5 -14 8 -24 7 -14 -3 -17 -13 -15 -62 3 -70 14 -118 59 -243 19 -51 34 -99
34 -106 0 -18 56 -12 78 9 10 9 26 16 34 16 9 0 21 7 28 15 7 8 16 15 21 15 5
0 18 8 29 17 18 16 20 25 14 78 -8 65 -23 84 -60 77 -22 -4 -24 -1 -24 34 0
22 7 116 14 209 8 94 13 171 11 173 -1 2 -5 -4 -9 -13z"/>
<path d="M7245 4420 c3 -5 10 -10 16 -10 5 0 9 5 9 10 0 6 -7 10 -16 10 -8 0
-12 -4 -9 -10z"/>
<path d="M6685 3963 c3 -43 5 -81 5 -85 0 -13 35 -9 68 8 l32 15 -26 47 c-47
82 -54 92 -69 92 -11 0 -13 -15 -10 -77z"/>
<path d="M7277 4013 c-6 -10 -37 -163 -37 -184 0 -4 12 -9 27 -12 35 -6 117
28 107 45 -4 7 -24 38 -45 68 -20 31 -38 64 -41 75 -2 14 -6 16 -11 8z"/>
<path d="M6235 3938 c-3 -18 -7 -63 -10 -100 l-5 -68 28 4 c65 10 74 17 69 51
-7 42 -54 145 -66 145 -6 0 -13 -15 -16 -32z"/>
<path d="M6211 3139 c-35 -4 -66 -11 -69 -14 -12 -12 6 -13 58 -3 56 10 284 5
330 -8 18 -5 22 -4 15 4 -12 13 -158 33 -225 31 -25 -1 -74 -5 -109 -10z"/>
<path d="M6760 3139 c-41 -6 -77 -12 -79 -15 -12 -11 11 -12 74 -2 71 11 286
6 318 -7 9 -4 17 -3 17 3 0 23 -212 36 -330 21z"/>
<path d="M6191 3059 c-30 -5 -57 -12 -60 -14 -11 -12 8 -13 49 -3 48 11 312 6
343 -7 9 -4 17 -3 17 3 0 22 -256 38 -349 21z"/>
<path d="M6760 3059 c-35 -5 -66 -12 -69 -14 -11 -12 8 -12 59 -3 59 11 304 6
333 -7 9 -4 17 -3 17 3 0 5 -12 12 -27 16 -53 12 -248 15 -313 5z"/>
<path d="M6201 2970 c-40 -4 -78 -13 -85 -20 -8 -8 0 -9 34 -3 65 12 308 9
353 -4 20 -6 37 -8 37 -3 0 23 -222 43 -339 30z"/>
<path d="M6812 2970 c-89 -10 -122 -18 -122 -29 0 -5 17 -4 38 2 44 13 287 16
352 4 33 -6 42 -5 34 3 -6 6 -51 15 -100 20 -98 11 -98 11 -202 0z"/>
<path d="M6185 2875 c-5 -2 -27 -6 -47 -10 -21 -3 -38 -10 -38 -14 0 -5 19 -4
43 1 54 13 276 13 342 0 47 -10 65 -9 54 3 -17 16 -314 33 -354 20z"/>
<path d="M6756 2870 c-32 -6 -61 -12 -64 -15 -12 -12 6 -13 53 -3 65 13 288
13 343 0 43 -10 60 0 20 13 -37 11 -288 15 -352 5z"/>
<path d="M6156 2759 c-38 -5 -72 -11 -74 -14 -13 -13 10 -14 64 -4 59 11 297
6 359 -7 21 -4 27 -3 20 4 -12 13 -170 32 -245 31 -30 -1 -86 -6 -124 -10z"/>
<path d="M6790 2758 c-41 -5 -79 -14 -85 -19 -7 -7 8 -8 45 -2 71 10 302 10
360 0 32 -6 42 -5 34 3 -25 25 -216 35 -354 18z"/>
<path d="M6140 2648 c-36 -5 -69 -14 -75 -19 -7 -7 6 -8 40 -2 65 11 305 10
375 -1 38 -5 52 -5 45 2 -12 13 -182 32 -262 31 -32 -1 -87 -6 -123 -11z"/>
<path d="M6795 2648 c-44 -5 -84 -14 -90 -19 -7 -8 6 -9 45 -3 70 11 310 12
375 1 34 -6 47 -5 40 1 -13 14 -152 32 -228 31 -34 -1 -98 -6 -142 -11z"/>
<path d="M3230 1044 c-11 -25 -20 -50 -20 -55 0 -14 66 -40 103 -41 33 -1 57
23 57 57 0 27 -23 47 -78 69 l-43 16 -19 -46z"/>
<path d="M3595 843 c-25 -31 -42 -59 -38 -63 4 -4 27 -14 51 -23 l42 -17 0 80
c0 44 -2 80 -4 80 -3 0 -26 -25 -51 -57z"/>
<path d="M3971 786 c-6 -25 -11 -47 -11 -50 0 -7 105 -36 134 -36 44 0 64 70
25 90 -23 13 -108 40 -125 40 -7 0 -17 -20 -23 -44z"/>
<path d="M7149 688 l-45 -9 9 -53 c8 -41 14 -53 26 -50 98 19 123 28 138 50
14 22 14 26 -1 49 -18 28 -45 30 -127 13z"/>
</g>
</svg>
